<?xml version="1.0" standalone="no"?>
<!DOCTYPE svg PUBLIC "-//W3C//DTD SVG 20010904//EN"
 "http://www.w3.org/TR/2001/REC-SVG-20010904/DTD/svg10.dtd">
<svg version="1.0" xmlns="http://www.w3.org/2000/svg"
 width="1000.000000pt" height="986.000000pt" viewBox="0 0 1000.000000 986.000000"
 preserveAspectRatio="xMidYMid meet">

<g transform="translate(0.000000,986.000000) scale(0.100000,-0.100000)"
fill="#000000" stroke="none">
<path d="M6360 8411 c-179 -29 -204 -38 -294 -104 -163 -121 -262 -223 -373
-384 l-52 -76 -11 29 c-28 72 -65 90 -311 148 -242 57 -445 77 -594 58 -115
-14 -82 -2 -523 -188 -585 -247 -959 -456 -1362 -763 -385 -294 -709 -604
-977 -936 -214 -265 -416 -605 -498 -835 -15 -41 -41 -97 -58 -123 -61 -97
-30 -192 107 -332 154 -158 300 -223 400 -180 17 8 18 4 13 -46 -26 -229 -16
-532 22 -680 21 -83 78 -186 123 -224 45 -38 126 -35 258 10 57 19 107 32 111
28 4 -5 9 -44 10 -88 l2 -80 -149 -7 c-537 -23 -1143 -235 -1534 -535 -259
-199 -460 -451 -599 -748 l-66 -140 -3 -801 -2 -801 35 -92 c46 -120 150 -324
221 -433 l58 -88 148 0 c164 0 158 -4 102 65 -106 132 -248 391 -319 580 -36
95 -115 387 -115 424 0 16 9 16 137 5 285 -26 437 -51 658 -109 193 -50 335
-97 475 -155 121 -50 350 -166 350 -177 0 -3 -7 -3 -15 0 -8 4 -17 2 -20 -3
-3 -4 7 -7 22 -5 52 6 326 -185 522 -363 46 -42 79 -78 72 -80 -6 -2 -11 -10
-11 -18 0 -8 -4 -14 -10 -14 -5 0 -10 -17 -10 -38 0 -41 -38 -91 -59 -77 -6 3
-17 3 -24 -2 -30 -19 141 -24 1006 -30 l917 -5 1 74 c0 40 6 125 12 188 7 63
9 142 6 175 -7 80 -63 250 -102 317 -60 100 -286 247 -514 335 -193 74 -281
92 -503 104 -252 13 -273 16 -305 41 -25 20 -27 25 -23 89 5 95 49 150 134
169 51 12 380 12 559 0 185 -12 397 -57 507 -108 134 -62 267 -150 350 -232
62 -61 85 -93 117 -161 41 -85 80 -208 107 -332 20 -96 19 -467 -1 -574 -8
-43 -15 -79 -15 -80 0 -2 305 -3 679 -3 l678 0 6 160 c7 210 14 221 165 265
85 24 88 29 78 100 l-7 43 -57 10 c-31 6 -100 18 -152 28 -242 43 -1179 240
-1240 259 -8 3 -25 33 -36 68 -12 34 -25 69 -28 79 -7 15 0 14 71 -3 43 -10
193 -44 333 -74 140 -31 316 -69 390 -85 163 -36 635 -126 705 -135 39 -5 116
6 345 49 162 31 358 70 435 87 139 30 743 162 905 198 47 11 86 18 88 16 4 -3
-70 -131 -87 -152 -6 -6 -36 -17 -68 -23 -32 -7 -249 -54 -483 -105 -234 -52
-488 -106 -565 -120 -163 -30 -398 -86 -405 -96 -3 -4 -3 -30 -2 -57 l4 -51
51 -11 c101 -21 145 -40 181 -80 64 -71 126 -223 126 -308 0 -67 -47 -62 592
-62 l580 0 -6 43 c-4 24 3 151 14 283 30 342 65 465 184 632 149 211 386 374
671 462 174 55 387 109 456 116 52 6 57 5 63 -14 8 -25 25 -292 19 -308 -2 -6
-34 -16 -71 -24 -185 -36 -458 -147 -629 -257 -111 -71 -249 -222 -288 -317
-18 -42 -61 -321 -70 -446 -3 -47 -8 -104 -10 -127 l-5 -43 820 0 820 0 -26
58 c-14 31 -71 163 -126 292 -124 291 -211 466 -294 593 -35 54 -64 102 -64
107 0 5 10 10 22 12 12 2 33 18 45 37 21 31 23 45 23 162 0 138 -12 253 -36
337 l-15 53 49 54 c63 72 137 220 151 306 21 127 11 175 -43 208 -46 27 -279
116 -371 142 -44 12 -86 23 -94 26 -8 2 16 34 65 86 231 240 385 531 456 860
41 188 24 539 -37 805 -19 80 -21 77 107 106 37 8 128 103 197 206 54 82 145
283 171 380 20 75 -9 400 -56 624 -79 373 -253 816 -424 1074 -160 242 -411
507 -790 831 -124 106 -250 214 -280 240 -99 85 -110 92 -455 301 -407 247
-793 423 -1092 499 -117 30 -300 35 -443 12z m425 -297 c194 -54 545 -209 790
-349 418 -239 700 -451 1120 -841 431 -401 596 -650 772 -1169 87 -257 131
-462 153 -715 l12 -135 -36 -94 c-51 -132 -99 -218 -154 -278 -47 -51 -50 -52
-83 -43 -50 14 -161 94 -216 154 -45 48 -53 66 -114 252 -37 109 -91 260 -120
334 -69 175 -407 851 -499 999 -142 228 -327 438 -405 460 -76 21 -140 -15
-165 -91 -18 -57 -1 -93 95 -202 96 -110 175 -219 259 -356 60 -98 399 -771
392 -778 -5 -4 -119 23 -401 95 -115 29 -238 58 -274 64 -35 5 -67 12 -71 14
-4 2 -10 38 -13 78 -18 206 -114 541 -215 744 -142 286 -300 473 -667 788
-182 157 -263 219 -324 249 -25 12 -64 34 -85 49 -30 21 -51 27 -90 27 -65 0
-62 2 -461 -337 -92 -78 -172 -176 -187 -228 -6 -22 -15 -45 -20 -51 -9 -12
-97 -38 -104 -31 -3 2 9 42 26 88 37 99 97 205 176 309 55 73 56 76 52 129 -4
47 -10 59 -43 89 -35 32 -40 34 -96 30 -54 -4 -63 -8 -105 -49 -54 -52 -149
-189 -193 -277 -120 -239 -209 -651 -260 -1207 -29 -314 -38 -683 -21 -885 4
-58 7 -106 5 -108 -8 -9 -229 116 -374 210 -57 37 -83 48 -114 48 -78 0 -137
-63 -137 -147 0 -44 29 -90 79 -127 l30 -23 -27 -25 c-39 -37 -191 -134 -248
-159 -73 -31 -207 -79 -211 -75 -2 1 15 57 38 122 34 95 41 126 35 156 -9 51
-46 92 -96 107 -104 31 -171 -44 -235 -264 -34 -118 -53 -411 -36 -543 6 -48
13 -95 14 -105 6 -56 -414 -147 -612 -133 -51 4 -102 11 -111 16 -39 21 -82
194 -110 450 -16 142 -14 442 4 685 30 379 83 620 187 844 45 96 49 147 19
196 -22 35 -73 65 -111 65 -48 0 -104 -38 -136 -92 -64 -107 -149 -359 -187
-557 -64 -332 -89 -799 -63 -1171 3 -36 -79 -77 -293 -145 -96 -31 -219 -72
-273 -91 -54 -19 -104 -34 -112 -34 -18 0 -32 70 -40 200 -12 186 33 861 64
977 5 17 23 49 39 70 43 54 49 93 22 148 -16 33 -32 49 -65 65 -52 25 -87 21
-152 -16 -77 -44 -134 -200 -148 -404 -3 -47 -8 -100 -11 -117 l-5 -33 -37 24
c-20 13 -57 35 -82 49 -25 14 -65 46 -89 71 l-44 45 23 72 c46 148 132 319
264 529 270 430 837 986 1365 1339 379 254 698 417 1266 647 l220 89 145 -1
c163 -2 209 -9 433 -65 209 -52 242 -51 300 6 15 16 28 26 30 24 1 -2 10 -20
20 -40 23 -46 64 -69 120 -69 56 0 85 23 166 129 123 161 292 307 382 331 126
34 328 31 464 -6z m-259 -1093 c32 -21 81 -58 108 -82 l50 -44 -160 -11 c-87
-6 -193 -15 -234 -19 -41 -4 -73 -5 -70 -2 21 21 235 197 240 197 4 0 33 -17
66 -39z m509 -445 c31 -21 170 -188 221 -266 77 -120 194 -372 194 -419 0 -7
-17 -19 -37 -27 -178 -75 -433 -343 -528 -557 -17 -37 -32 -67 -35 -67 -3 0
-22 33 -42 73 -67 130 -140 230 -243 334 -164 164 -356 276 -590 346 -88 26
-120 30 -269 34 l-168 6 7 61 c13 125 44 279 57 291 29 28 412 137 613 175
177 33 255 38 533 35 213 -3 268 -7 287 -19z m-1096 -825 c170 -57 295 -134
416 -254 96 -97 150 -174 210 -300 74 -155 97 -249 98 -407 1 -150 -8 -189
-71 -315 -125 -252 -327 -411 -595 -470 -63 -14 -111 -16 -240 -13 -145 4
-170 8 -237 32 -134 49 -282 144 -409 261 -51 48 -200 246 -216 287 -4 10 3
31 17 50 12 18 23 34 24 36 0 1 44 -18 96 -42 153 -72 259 -92 388 -75 54 7
70 14 94 40 31 35 31 29 2 184 -31 166 -40 381 -27 690 7 160 15 298 17 307 7
23 38 27 200 23 126 -3 152 -7 233 -34z m1586 -133 c21 -118 38 -252 39 -308
2 -117 50 -154 212 -165 92 -6 231 -29 241 -39 3 -2 -16 -23 -41 -46 -138
-127 -138 -348 1 -482 84 -82 226 -110 337 -68 166 63 258 260 197 419 -11 30
-19 56 -18 58 2 1 34 -4 71 -11 44 -10 77 -11 98 -5 17 4 35 6 41 2 16 -10 0
-123 -29 -203 -108 -301 -318 -551 -569 -678 -88 -44 -158 -62 -267 -69 -169
-11 -344 33 -475 118 -137 89 -267 264 -325 434 -24 71 -28 95 -28 210 0 147
13 214 65 350 73 189 187 340 340 450 50 36 93 65 97 65 4 0 10 -15 13 -32z
m1589 -1362 c21 -49 21 -80 1 -72 -37 14 -119 17 -178 7 -371 -65 -627 -451
-603 -911 10 -198 57 -356 149 -497 47 -74 155 -188 187 -198 28 -9 25 -20
-12 -49 -62 -46 -163 -95 -248 -119 -47 -14 -97 -31 -113 -38 -37 -17 -67 -68
-67 -113 0 -43 12 -70 49 -109 l26 -29 -235 5 c-228 4 -239 5 -380 40 -228 56
-402 90 -952 186 -591 104 -726 125 -933 146 -545 54 -913 57 -1375 9 -230
-23 -550 -71 -740 -111 -248 -51 -239 -51 -306 -13 -74 43 -215 150 -282 214
-75 72 -191 217 -250 311 -115 188 -167 339 -216 630 -21 128 -29 340 -13 353
6 5 53 24 102 42 50 18 94 37 100 42 23 20 43 8 49 -31 3 -22 21 -75 39 -118
l32 -78 -15 -88 c-13 -76 -17 -86 -30 -75 -12 11 -12 11 -3 -2 6 -8 16 -67 23
-130 22 -217 76 -363 187 -508 87 -114 170 -181 310 -251 360 -180 826 -76
1068 239 136 176 188 330 189 550 0 187 -34 305 -136 481 -52 88 -103 145
-200 219 -86 67 -88 70 -61 75 60 13 182 60 281 107 l102 49 27 -32 c15 -17
41 -53 58 -78 77 -118 262 -284 432 -389 192 -119 379 -173 600 -174 57 0 103
-1 103 -3 0 -1 -20 -32 -44 -68 -137 -205 -143 -474 -15 -666 44 -66 150 -165
244 -228 149 -100 452 -218 635 -248 316 -50 654 21 906 193 110 74 252 239
317 368 60 119 76 300 36 430 -23 77 -83 186 -123 223 -14 14 -26 27 -26 31 0
3 45 12 100 19 55 6 123 19 152 28 89 26 228 97 323 164 98 70 273 239 320
309 16 25 58 86 92 137 l63 91 119 -116 c73 -72 125 -132 135 -156z m-2227 66
c17 -32 52 -86 77 -119 25 -33 46 -62 46 -64 0 -2 -73 -4 -163 -4 l-163 0 53
70 c29 39 65 94 80 122 16 29 30 53 33 53 3 0 19 -26 37 -58z m153 -384 c177
-21 387 -109 514 -214 68 -56 156 -164 156 -191 0 -26 -113 -129 -190 -171
-131 -73 -438 -161 -638 -183 -166 -18 -439 -1 -586 36 -124 32 -309 136 -322
181 -8 30 31 139 73 201 84 127 251 240 458 312 143 49 302 58 535 29z m-4982
-563 c-3 -3 -19 -8 -34 -11 -16 -2 -47 -8 -69 -13 -32 -7 -35 -9 -12 -10 34
-1 36 -21 2 -21 -14 0 -25 -4 -25 -10 0 -5 19 -10 43 -9 23 0 36 3 28 6 -11 5
-11 7 0 14 10 6 11 9 2 9 -7 0 -13 5 -13 10 0 6 14 10 30 10 23 0 30 -4 30
-20 0 -13 7 -20 19 -20 20 0 111 -91 111 -112 0 -6 14 -27 32 -45 18 -18 27
-33 20 -33 -7 0 -12 -4 -12 -10 0 -5 9 -10 20 -10 21 0 27 -15 10 -25 -6 -4
-8 -11 -4 -16 4 -6 11 -6 20 2 18 15 20 13 28 -38 5 -35 3 -42 -11 -46 -10 -2
7 -8 37 -13 l55 -10 -95 -13 c-118 -16 -516 -23 -630 -11 -177 20 -300 45
-483 101 -62 19 -95 34 -91 41 18 29 343 164 519 215 182 53 497 111 473 88z
m5652 -198 c0 -21 -66 -126 -117 -185 -67 -78 -144 -136 -248 -187 -135 -66
-232 -87 -395 -88 -262 -1 -530 78 -741 219 -73 49 -129 103 -94 90 153 -57
279 -80 495 -91 205 -10 371 8 593 64 212 54 317 92 422 150 79 44 85 46 85
28z m-6734 -346 c281 -94 473 -134 734 -155 210 -18 454 -4 735 39 l30 5 -30
-15 c-16 -8 -52 -14 -78 -15 -29 0 -46 -4 -42 -10 3 -5 27 -8 53 -5 38 3 41 3
17 -4 -29 -8 -29 -9 -4 -10 25 -1 49 -33 49 -66 0 -7 4 -15 9 -17 16 -5 31
-180 38 -426 l6 -233 -36 3 c-20 1 -39 -1 -43 -5 -4 -4 10 -7 32 -8 21 0 33
-3 25 -6 -10 -4 -4 -12 20 -25 l34 -19 -30 6 c-29 6 -87 24 -500 154 -276 87
-941 285 -1095 326 -185 49 -445 117 -467 122 -29 7 -22 20 63 128 63 81 240
263 248 254 2 -2 -5 -20 -15 -39 -11 -19 -19 -29 -19 -22 0 7 -4 11 -10 7 -5
-3 -6 -13 -3 -22 5 -12 2 -15 -10 -10 -21 8 -42 -26 -42 -70 0 -18 1 -33 3
-33 2 0 21 18 42 40 21 22 46 40 55 40 14 0 16 10 13 61 -2 51 0 63 16 75 11
8 20 14 21 14 1 0 82 -27 181 -59z m-259 -86 c-17 -16 -37 -20 -37 -7 0 9 42
32 49 26 2 -2 -4 -10 -12 -19z m-322 -525 c39 -11 126 -33 195 -50 174 -42
285 -72 510 -140 307 -92 655 -196 692 -207 10 -3 16 -8 14 -12 -2 -3 8 -6 22
-7 23 -1 529 -154 617 -186 44 -16 54 -29 14 -18 -45 13 -49 13 -43 -5 3 -8 9
-14 12 -13 30 3 31 -4 26 -224 -5 -261 -9 -329 -30 -538 -27 -273 -23 -251
-47 -245 -19 5 -20 5 -4 -5 26 -17 20 -31 -10 -24 -28 7 -28 7 -8 -12 34 -33
73 -81 50 -63 -302 241 -461 350 -667 455 -210 106 -406 182 -668 258 -239 69
-709 146 -894 146 l-69 0 6 158 c4 86 9 177 13 202 19 143 86 395 135 504 23
53 29 54 134 26z m2377 -1187 c-5 -10 -12 -25 -15 -33 -2 -8 -5 0 -4 18 0 20
5 32 14 32 10 0 11 -5 5 -17z"/>
<path d="M6210 8000 c0 -5 5 -10 10 -10 6 0 10 5 10 10 0 6 -4 10 -10 10 -5 0
-10 -4 -10 -10z"/>
<path d="M7950 7375 c0 -2 10 -10 23 -16 20 -11 21 -11 8 4 -13 16 -31 23 -31
12z"/>
<path d="M4734 7295 c-3 -8 -4 -20 -2 -27 3 -7 7 -1 10 15 6 29 1 36 -8 12z"/>
<path d="M8120 7256 c0 -3 9 -10 20 -16 11 -6 20 -8 20 -6 0 3 -9 10 -20 16
-11 6 -20 8 -20 6z"/>
<path d="M3710 7210 c-9 -6 -10 -10 -3 -10 6 0 15 5 18 10 8 12 4 12 -15 0z"/>
<path d="M4535 7175 c-25 -12 -26 -14 -5 -9 28 7 60 23 45 23 -5 0 -23 -6 -40
-14z"/>
<path d="M8230 7186 c0 -2 8 -10 18 -17 15 -13 16 -12 3 4 -13 16 -21 21 -21
13z"/>
<path d="M4392 7123 c-24 -8 -41 -17 -39 -19 4 -5 97 26 97 32 0 6 -11 4 -58
-13z"/>
<path d="M3473 7086 c-113 -76 -88 -68 47 16 25 15 38 27 30 27 -8 -1 -43 -20
-77 -43z"/>
<path d="M8350 7096 c0 -2 7 -7 16 -10 8 -3 12 -2 9 4 -6 10 -25 14 -25 6z"/>
<path d="M4230 7060 c-8 -5 -10 -10 -5 -10 6 0 17 5 25 10 8 5 11 10 5 10 -5
0 -17 -5 -25 -10z"/>
<path d="M4085 7000 c-38 -25 -30 -25 21 0 21 10 32 19 24 20 -8 0 -28 -9 -45
-20z"/>
<path d="M3323 6989 c-35 -22 -46 -37 -15 -20 22 13 58 40 52 41 -3 0 -20 -10
-37 -21z"/>
<path d="M3995 6950 c-3 -6 1 -7 9 -4 18 7 21 14 7 14 -6 0 -13 -4 -16 -10z"/>
<path d="M3920 6912 c-77 -46 -149 -96 -145 -100 2 -2 34 16 72 41 37 24 84
53 103 65 19 12 31 22 25 22 -5 0 -30 -13 -55 -28z"/>
<path d="M3409 6793 l-34 -38 38 34 c20 19 37 36 37 38 0 8 -8 0 -41 -34z"/>
<path d="M8730 6766 c0 -2 8 -10 18 -17 15 -13 16 -12 3 4 -13 16 -21 21 -21
13z"/>
<path d="M3670 6735 c-11 -13 -10 -14 4 -9 9 3 16 10 16 15 0 13 -6 11 -20 -6z"/>
<path d="M3254 6655 c-21 -19 -34 -34 -28 -35 5 0 25 16 44 35 43 45 35 45
-16 0z"/>
<path d="M7430 6676 c0 -2 7 -9 15 -16 9 -7 15 -8 15 -2 0 5 -7 12 -15 16 -8
3 -15 4 -15 2z"/>
<path d="M3492 6592 c-34 -32 -62 -62 -62 -67 1 -6 9 -1 18 10 10 11 41 41 69
68 29 26 49 47 45 47 -4 0 -35 -26 -70 -58z"/>
<path d="M7480 6631 c0 -5 5 -13 10 -16 6 -3 10 -2 10 4 0 5 -4 13 -10 16 -5
3 -10 2 -10 -4z"/>
<path d="M4110 6580 c-6 -11 -8 -20 -6 -20 3 0 10 9 16 20 6 11 8 20 6 20 -3
0 -10 -9 -16 -20z"/>
<path d="M7510 6596 c0 -2 8 -10 18 -17 15 -13 16 -12 3 4 -13 16 -21 21 -21
13z"/>
<path d="M8880 6573 c13 -18 25 -33 27 -33 8 0 -17 38 -33 51 -11 9 -9 2 6
-18z"/>
<path d="M8920 6524 c0 -11 38 -74 45 -74 2 0 -5 17 -17 38 -27 46 -28 48 -28
36z"/>
<path d="M4040 6464 c-18 -30 -31 -57 -28 -59 2 -2 18 23 36 56 18 32 31 59
28 59 -2 0 -19 -25 -36 -56z"/>
<path d="M3364 6468 l-29 -33 35 30 c19 17 37 31 39 33 2 1 0 2 -5 2 -6 0 -23
-15 -40 -32z"/>
<path d="M4905 6470 c-15 -6 -7 -9 30 -9 36 -1 46 2 35 9 -18 12 -38 12 -65 0z"/>
<path d="M4263 6433 c-26 -39 -78 -140 -66 -128 13 12 94 155 88 155 -2 0 -12
-12 -22 -27z"/>
<path d="M5011 6434 c13 -17 26 -30 28 -27 3 2 -8 16 -24 31 l-28 27 24 -31z"/>
<path d="M4856 6433 c-6 -14 -5 -15 5 -6 7 7 10 15 7 18 -3 3 -9 -2 -12 -12z"/>
<path d="M2545 6388 l-30 -30 33 23 c17 12 32 26 32 31 0 11 -2 10 -35 -24z"/>
<path d="M3236 6322 l-29 -37 34 32 c18 18 31 35 28 37 -3 3 -18 -12 -33 -32z"/>
<path d="M7771 6210 c14 -31 19 -36 19 -24 0 6 -7 19 -16 30 -14 18 -14 18 -3
-6z"/>
<path d="M4131 6194 c0 -11 3 -14 6 -6 3 7 2 16 -1 19 -3 4 -6 -2 -5 -13z"/>
<path d="M7800 6155 c0 -5 5 -17 10 -25 5 -8 10 -10 10 -5 0 6 -5 17 -10 25
-5 8 -10 11 -10 5z"/>
<path d="M4761 6084 c-8 -36 -11 -67 -9 -69 2 -3 10 25 17 61 8 36 11 67 9 69
-2 3 -10 -25 -17 -61z"/>
<path d="M3834 6028 c-46 -109 -50 -121 -30 -88 22 36 78 171 73 176 -2 2 -22
-37 -43 -88z"/>
<path d="M4058 6034 c-10 -19 -18 -43 -18 -52 0 -9 9 3 20 27 25 53 22 73 -2
25z"/>
<path d="M9205 6005 c9 -22 21 -44 26 -50 6 -5 3 8 -6 30 -9 22 -21 45 -27 50
-5 6 -2 -8 7 -30z"/>
<path d="M7835 5931 c8 -26 45 -91 51 -91 5 0 -45 101 -53 110 -3 3 -2 -6 2
-19z"/>
<path d="M2090 5895 c-7 -9 -11 -17 -9 -20 3 -2 10 5 17 15 14 24 10 26 -8 5z"/>
<path d="M3765 5869 c-4 -6 -5 -12 -2 -15 2 -3 7 2 10 11 7 17 1 20 -8 4z"/>
<path d="M7891 5814 c0 -11 3 -14 6 -6 3 7 2 16 -1 19 -3 4 -6 -2 -5 -13z"/>
<path d="M7850 5815 c0 -5 5 -17 10 -25 5 -8 10 -10 10 -5 0 6 -5 17 -10 25
-5 8 -10 11 -10 5z"/>
<path d="M7822 5760 c0 -19 2 -27 5 -17 2 9 2 25 0 35 -3 9 -5 1 -5 -18z"/>
<path d="M4912 5760 c0 -14 2 -19 5 -12 2 6 2 18 0 25 -3 6 -5 1 -5 -13z"/>
<path d="M4691 5714 c0 -11 3 -14 6 -6 3 7 2 16 -1 19 -3 4 -6 -2 -5 -13z"/>
<path d="M4901 5704 c0 -11 3 -14 6 -6 3 7 2 16 -1 19 -3 4 -6 -2 -5 -13z"/>
<path d="M8316 5647 c3 -10 9 -15 12 -12 3 3 0 11 -7 18 -10 9 -11 8 -5 -6z"/>
<path d="M7951 5634 c0 -11 3 -14 6 -6 3 7 2 16 -1 19 -3 4 -6 -2 -5 -13z"/>
<path d="M9371 5600 c14 -31 19 -36 19 -24 0 6 -7 19 -16 30 -14 18 -14 18 -3
-6z"/>
<path d="M7961 5594 c0 -11 3 -14 6 -6 3 7 2 16 -1 19 -3 4 -6 -2 -5 -13z"/>
<path d="M4852 5508 c-7 -28 -11 -53 -8 -55 2 -2 9 19 16 47 7 28 10 53 8 55
-3 3 -10 -18 -16 -47z"/>
<path d="M7972 5540 c0 -14 2 -19 5 -12 2 6 2 18 0 25 -3 6 -5 1 -5 -13z"/>
<path d="M2340 5530 c-6 -11 -8 -20 -6 -20 3 0 10 9 16 20 6 11 8 20 6 20 -3
0 -10 -9 -16 -20z"/>
<path d="M3651 5503 c-6 -21 -14 -56 -16 -78 -3 -22 3 -7 15 34 11 41 18 76
16 79 -3 2 -9 -13 -15 -35z"/>
<path d="M7981 5494 c0 -11 3 -14 6 -6 3 7 2 16 -1 19 -3 4 -6 -2 -5 -13z"/>
<path d="M8401 5384 c0 -11 3 -14 6 -6 3 7 2 16 -1 19 -3 4 -6 -2 -5 -13z"/>
<path d="M2464 4670 c0 -118 2 -167 3 -107 2 59 2 155 0 215 -1 59 -3 10 -3
-108z"/>
<path d="M3553 4720 c0 -36 2 -50 4 -32 2 17 2 47 0 65 -2 17 -4 3 -4 -33z"/>
<path d="M3590 4486 c0 -2 8 -10 18 -17 15 -13 16 -12 3 4 -13 16 -21 21 -21
13z"/>
<path d="M2262 4330 c0 -14 2 -19 5 -12 2 6 2 18 0 25 -3 6 -5 1 -5 -13z"/>
<path d="M3231 4259 c5 -28 11 -54 15 -58 8 -9 -7 92 -16 102 -4 5 -4 -15 1
-44z"/>
<path d="M3251 4174 c0 -11 3 -14 6 -6 3 7 2 16 -1 19 -3 4 -6 -2 -5 -13z"/>
<path d="M6147 5150 c-147 -37 -247 -165 -248 -317 -1 -127 60 -231 171 -292
60 -33 71 -36 150 -36 71 0 94 4 141 26 69 33 127 89 160 155 20 41 24 63 24
144 0 83 -4 101 -27 145 -33 63 -104 130 -165 156 -55 23 -152 32 -206 19z"/>
<path d="M2820 3704 c0 -3 11 -22 25 -42 30 -45 33 -37 4 12 -20 34 -29 43
-29 30z"/>
<path d="M1760 3310 c-21 -7 -19 -8 17 -9 23 -1 45 4 48 9 7 12 -29 12 -65 0z"/>
<path d="M1590 3261 c0 -4 11 -6 25 -3 14 2 25 6 25 8 0 2 -11 4 -25 4 -14 0
-25 -4 -25 -9z"/>
<path d="M1525 3244 c-54 -12 -101 -29 -112 -42 -6 -8 -16 -11 -22 -8 -5 4
-12 2 -16 -4 -3 -5 -1 -10 5 -10 6 0 9 -4 5 -9 -3 -5 -1 -12 5 -16 5 -3 10 1
10 10 0 8 12 20 28 25 15 6 35 15 44 20 25 14 65 12 71 -2 2 -7 8 -9 13 -5 5
4 2 12 -6 18 -13 8 -13 10 0 19 15 10 10 11 -25 4z"/>
<path d="M2105 3207 c-4 -10 -5 -21 -1 -24 10 -10 18 4 13 24 -4 17 -4 17 -12
0z"/>
<path d="M1315 3173 c-34 -8 -135 -55 -135 -63 0 -4 17 -4 38 2 20 5 53 13 72
18 l35 8 -34 1 c-43 1 -38 7 13 14 21 3 43 10 49 16 12 12 0 13 -38 4z"/>
<path d="M1140 3095 c-14 -8 -20 -14 -14 -15 5 0 19 7 30 15 24 18 16 19 -16
0z"/>
<path d="M1168 3084 c-27 -8 -48 -17 -48 -19 0 -9 77 -25 148 -31 52 -4 72 -2
72 6 0 8 -16 11 -49 8 -34 -2 -47 1 -44 9 2 6 -6 15 -19 19 -22 7 -22 7 -3 15
35 13 -7 8 -57 -7z m37 -24 c-3 -5 -12 -10 -18 -10 -7 0 -6 4 3 10 19 12 23
12 15 0z"/>
<path d="M1270 3016 c0 -2 9 -6 20 -9 11 -3 18 -1 14 4 -5 9 -34 13 -34 5z"/>
<path d="M1503 2968 c-6 -11 29 -10 46 1 10 7 6 9 -13 8 -16 -1 -30 -5 -33 -9z"/>
<path d="M2168 2963 c6 -2 18 -2 25 0 6 3 1 5 -13 5 -14 0 -19 -2 -12 -5z"/>
<path d="M1688 2953 c6 -2 18 -2 25 0 6 3 1 5 -13 5 -14 0 -19 -2 -12 -5z"/>
<path d="M2218 2953 c7 -3 16 -2 19 1 4 3 -2 6 -13 5 -11 0 -14 -3 -6 -6z"/>
<path d="M893 2829 c11 -6 24 -12 30 -13 7 -2 25 -8 41 -15 16 -6 31 -9 34 -6
8 7 -1 14 -24 18 -10 1 -23 5 -29 8 -5 4 -23 9 -40 13 -25 5 -27 4 -12 -5z"/>
<path d="M1035 2780 c27 -12 43 -12 25 0 -8 5 -22 9 -30 9 -10 0 -8 -3 5 -9z"/>
<path d="M1100 2760 c-23 -5 -23 -7 -6 -13 11 -4 24 -3 30 3 14 14 5 18 -24
10z"/>
<path d="M1020 2744 c-10 -12 -8 -14 14 -12 28 3 34 13 12 21 -8 3 -20 -1 -26
-9z"/>
<path d="M1260 2720 c21 -7 18 -8 -20 -10 -25 -2 -35 -5 -22 -7 14 -3 22 -12
22 -24 0 -10 5 -19 10 -19 6 0 10 5 10 10 0 6 24 11 53 12 l52 1 -55 7 c-46 6
-49 7 -20 10 19 1 27 4 18 7 -10 2 -18 9 -18 14 0 5 -12 9 -27 8 l-28 -1 25
-8z"/>
<path d="M1428 2683 c12 -2 32 -2 45 0 12 2 2 4 -23 4 -25 0 -35 -2 -22 -4z"/>
<path d="M2260 2670 c0 -5 4 -10 9 -10 6 0 13 5 16 10 3 6 -1 10 -9 10 -9 0
-16 -4 -16 -10z"/>
<path d="M1326 2659 c3 -5 24 -9 46 -9 51 0 47 5 -10 13 -24 3 -40 1 -36 -4z"/>
<path d="M2208 2663 c6 -2 18 -2 25 0 6 3 1 5 -13 5 -14 0 -19 -2 -12 -5z"/>
<path d="M580 2635 c-10 -12 -10 -15 4 -15 9 0 16 7 16 15 0 8 -2 15 -4 15 -2
0 -9 -7 -16 -15z"/>
<path d="M1813 2643 c15 -2 37 -2 50 0 12 2 0 4 -28 4 -27 0 -38 -2 -22 -4z"/>
<path d="M545 2630 c-3 -5 -1 -10 4 -10 6 0 11 5 11 10 0 6 -2 10 -4 10 -3 0
-8 -4 -11 -10z"/>
<path d="M1808 2623 c7 -3 16 -2 19 1 4 3 -2 6 -13 5 -11 0 -14 -3 -6 -6z"/>
<path d="M448 2506 c-14 -20 -15 -25 -3 -29 7 -3 19 2 27 11 9 11 10 14 1 8
-16 -9 -17 6 -1 22 7 7 8 12 3 12 -6 0 -18 -11 -27 -24z"/>
<path d="M2442 2500 c0 -19 2 -27 5 -17 2 9 2 25 0 35 -3 9 -5 1 -5 -18z"/>
<path d="M608 2493 c6 -2 18 -2 25 0 6 3 1 5 -13 5 -14 0 -19 -2 -12 -5z"/>
<path d="M530 2475 c0 -10 26 -22 90 -41 22 -6 23 -5 11 10 -7 9 -19 16 -25
15 -37 -4 -43 5 -6 10 l45 7 -58 4 c-36 3 -57 1 -57 -5z"/>
<path d="M658 2443 c7 -3 16 -2 19 1 4 3 -2 6 -13 5 -11 0 -14 -3 -6 -6z"/>
<path d="M750 2410 c0 -4 21 -11 48 -15 26 -4 49 -10 52 -15 8 -12 160 -51
172 -44 6 4 8 3 5 -3 -5 -8 65 -30 123 -38 8 -1 23 -5 32 -9 9 -4 22 -5 28 -1
5 3 10 1 10 -4 0 -6 15 -11 32 -11 l32 0 -22 16 c-13 9 -32 14 -43 11 -11 -3
-26 2 -35 10 -18 18 -98 36 -128 28 -12 -3 -15 -2 -8 1 14 7 16 34 2 34 -5 0
-20 11 -33 24 -17 16 -28 21 -38 15 -8 -5 -52 -8 -99 -7 l-85 2 85 6 85 7
-107 0 c-60 0 -108 -3 -108 -7z m188 -27 c-10 -2 -28 -2 -40 0 -13 2 -5 4 17
4 22 1 32 -1 23 -4z"/>
<path d="M1281 2261 c-9 -6 -6 -10 12 -15 14 -3 33 -9 43 -13 11 -4 15 -3 11
4 -4 6 -1 13 5 16 7 3 0 4 -17 2 -16 -1 -32 1 -35 6 -3 4 -11 4 -19 0z"/>
<path d="M1375 2240 c3 -5 11 -10 16 -10 6 0 7 5 4 10 -3 6 -11 10 -16 10 -6
0 -7 -4 -4 -10z"/>
<path d="M1458 2243 c7 -3 16 -2 19 1 4 3 -2 6 -13 5 -11 0 -14 -3 -6 -6z"/>
<path d="M1465 2205 c28 -8 59 -15 69 -15 11 0 27 -6 35 -14 21 -18 66 -32 57
-17 -5 7 1 11 15 11 19 0 20 -2 8 -17 -12 -15 -12 -16 4 -10 11 4 30 10 43 13
13 3 24 11 24 16 0 6 -11 7 -24 4 -14 -3 -27 -2 -30 3 -3 4 -16 6 -30 4 -13
-3 -35 2 -48 11 -14 9 -35 16 -49 16 -13 0 -46 2 -74 5 l-50 4 50 -14z"/>
<path d="M1710 2130 c0 -5 4 -10 9 -10 6 0 13 5 16 10 3 6 -1 10 -9 10 -9 0
-16 -4 -16 -10z"/>
<path d="M1766 2125 c7 -17 11 -17 39 -4 19 9 18 9 -2 5 -13 -2 -23 0 -23 5 0
5 -4 9 -10 9 -5 0 -7 -7 -4 -15z"/>
<path d="M1868 2083 c7 -3 16 -2 19 1 4 3 -2 6 -13 5 -11 0 -14 -3 -6 -6z"/>
<path d="M1980 2050 c-13 -8 -12 -10 3 -10 9 0 17 5 17 10 0 12 -1 12 -20 0z"/>
<path d="M2027 2043 c-15 -14 -6 -25 18 -21 14 3 25 1 25 -5 0 -6 3 -7 6 -4 4
4 1 13 -6 22 -13 16 -32 20 -43 8z"/>
<path d="M2090 2008 c0 -8 60 -25 105 -30 17 -2 33 -7 36 -11 3 -4 16 -9 27
-10 12 -1 22 -5 22 -9 0 -4 5 -8 10 -8 6 0 10 9 10 20 0 12 -7 20 -16 20 -8 0
-23 7 -31 16 -10 10 -25 13 -40 9 -13 -3 -29 -2 -36 2 -15 10 -87 11 -87 1z
m77 -4 c-3 -3 -12 -4 -19 -1 -8 3 -5 6 6 6 11 1 17 -2 13 -5z"/>
<path d="M2320 1961 c0 -6 5 -13 10 -16 6 -3 10 1 10 9 0 9 -4 16 -10 16 -5 0
-10 -4 -10 -9z"/>
<path d="M2355 1930 c7 -12 42 -13 48 -2 3 4 -8 8 -24 9 -17 1 -27 -2 -24 -7z"/>
<path d="M288 2203 c6 -2 18 -2 25 0 6 3 1 5 -13 5 -14 0 -19 -2 -12 -5z"/>
<path d="M343 2203 c9 -2 25 -2 35 0 9 3 1 5 -18 5 -19 0 -27 -2 -17 -5z"/>
<path d="M396 2192 c-2 -4 4 -9 15 -9 10 -1 19 2 19 8 0 11 -27 12 -34 1z"/>
<path d="M266 2166 c-3 -14 -3 -32 1 -41 4 -11 0 -21 -10 -27 -10 -5 -17 -13
-17 -19 0 -5 11 -2 24 8 20 15 23 24 19 53 -7 41 5 36 13 -6 6 -35 14 -44 14
-16 0 11 3 28 7 38 4 12 3 15 -5 10 -7 -4 -12 -3 -12 3 0 5 10 12 23 14 14 3
9 5 -14 6 -31 1 -38 -3 -43 -23z"/>
<path d="M598 2143 c7 -3 16 -2 19 1 4 3 -2 6 -13 5 -11 0 -14 -3 -6 -6z"/>
<path d="M661 2126 c12 -10 59 -15 59 -6 0 5 -14 10 -32 10 -17 0 -29 -2 -27
-4z"/>
<path d="M738 2103 c7 -3 16 -2 19 1 4 3 -2 6 -13 5 -11 0 -14 -3 -6 -6z"/>
<path d="M848 2073 c7 -3 16 -2 19 1 4 3 -2 6 -13 5 -11 0 -14 -3 -6 -6z"/>
<path d="M885 2070 c3 -5 14 -10 23 -10 15 0 15 2 2 10 -20 13 -33 13 -25 0z"/>
<path d="M1000 2035 c14 -8 34 -14 45 -14 11 0 2 6 -20 14 -50 18 -57 18 -25
0z"/>
<path d="M968 2023 c7 -3 16 -2 19 1 4 3 -2 6 -13 5 -11 0 -14 -3 -6 -6z"/>
<path d="M1040 1990 c0 -5 4 -10 9 -10 6 0 13 5 16 10 3 6 -1 10 -9 10 -9 0
-16 -4 -16 -10z"/>
<path d="M1183 1970 c48 -26 61 -26 22 0 -16 11 -37 20 -45 20 -8 0 2 -9 23
-20z"/>
<path d="M1158 1948 c5 -5 16 -8 23 -6 8 3 3 7 -10 11 -17 4 -21 3 -13 -5z"/>
<path d="M1253 1953 c9 -2 23 -2 30 0 6 3 -1 5 -18 5 -16 0 -22 -2 -12 -5z"/>
<path d="M1364 1923 c15 -4 16 -7 5 -14 -9 -6 1 -9 31 -8 l45 0 -34 14 c-18 8
-41 14 -50 14 -12 -1 -12 -2 3 -6z"/>
<path d="M182 1870 c0 -14 2 -19 5 -12 2 6 2 18 0 25 -3 6 -5 1 -5 -13z"/>
<path d="M1510 1874 c-10 -12 -8 -14 14 -14 28 0 35 14 12 23 -8 3 -20 -1 -26
-9z"/>
<path d="M1650 1840 c12 -8 12 -10 1 -10 -8 0 -12 -2 -10 -5 3 -2 15 -2 28 2
17 4 19 8 9 14 -7 5 -20 9 -28 9 -13 0 -13 -1 0 -10z"/>
<path d="M1745 1810 c11 -5 27 -9 35 -9 9 0 8 4 -5 9 -11 5 -27 9 -35 9 -9 0
-8 -4 5 -9z"/>
<path d="M1720 1788 c0 -14 30 -22 41 -11 7 7 2 12 -15 15 -14 3 -26 1 -26 -4z"/>
<path d="M1843 1752 c-8 -5 -9 -13 -3 -22 8 -13 14 -13 41 3 17 9 35 15 40 11
5 -3 9 0 9 5 0 12 -69 15 -87 3z"/>
<path d="M1958 1743 c7 -3 16 -2 19 1 4 3 -2 6 -13 5 -11 0 -14 -3 -6 -6z"/>
<path d="M1978 1723 c34 -2 62 -8 62 -13 0 -5 7 -7 15 -4 8 4 17 -1 21 -10 3
-9 10 -16 16 -16 5 0 6 5 3 10 -3 6 0 10 7 11 7 0 -3 7 -22 14 -19 7 -64 13
-100 12 l-65 -1 63 -3z"/>
<path d="M1998 1703 c7 -3 16 -2 19 1 4 3 -2 6 -13 5 -11 0 -14 -3 -6 -6z"/>
<path d="M2147 1678 c4 -7 -2 -9 -15 -6 -12 4 -20 2 -17 -2 7 -11 64 -10 71 2
3 4 2 8 -3 9 -4 0 -16 2 -26 4 -10 2 -14 -1 -10 -7z"/>
<path d="M151 1664 c0 -11 3 -14 6 -6 3 7 2 16 -1 19 -3 4 -6 -2 -5 -13z"/>
<path d="M2295 1640 c19 -8 19 -9 1 -9 -11 -1 -17 -4 -13 -7 9 -9 48 6 42 17
-4 5 -16 9 -28 8 -21 0 -21 -1 -2 -9z"/>
<path d="M2348 1623 c6 -2 18 -2 25 0 6 3 1 5 -13 5 -14 0 -19 -2 -12 -5z"/>
<path d="M2400 1440 c0 -33 4 -60 10 -60 6 0 10 -13 10 -30 0 -16 5 -30 10
-30 6 0 10 26 10 59 0 32 3 73 6 90 6 28 4 31 -20 31 -25 0 -26 -2 -26 -60z"/>
<path d="M141 1404 c0 -11 3 -14 6 -6 3 7 2 16 -1 19 -3 4 -6 -2 -5 -13z"/>
<path d="M428 1373 c12 -2 30 -2 40 0 9 3 -1 5 -23 4 -22 0 -30 -2 -17 -4z"/>
<path d="M418 1353 c18 -2 45 -2 60 0 15 2 0 4 -33 4 -33 0 -45 -2 -27 -4z"/>
<path d="M378 1333 c7 -3 16 -2 19 1 4 3 -2 6 -13 5 -11 0 -14 -3 -6 -6z"/>
<path d="M425 1330 c3 -5 18 -10 32 -10 32 0 28 5 -10 14 -19 4 -26 3 -22 -4z"/>
<path d="M515 1330 c-4 -6 -12 -7 -18 -4 -9 5 -9 4 0 -6 7 -8 22 -10 39 -6 22
6 25 9 13 17 -18 11 -26 11 -34 -1z"/>
<path d="M610 1320 c0 -5 7 -10 15 -10 8 0 15 5 15 10 0 6 -7 10 -15 10 -8 0
-15 -4 -15 -10z"/>
<path d="M678 1293 c7 -3 16 -2 19 1 4 3 -2 6 -13 5 -11 0 -14 -3 -6 -6z"/>
<path d="M718 1283 c7 -3 16 -2 19 1 4 3 -2 6 -13 5 -11 0 -14 -3 -6 -6z"/>
<path d="M840 1275 c0 -9 9 -15 23 -15 16 0 18 3 8 9 -11 7 -11 9 0 14 8 3 4
6 -8 6 -14 1 -23 -5 -23 -14z"/>
<path d="M964 1275 c4 -11 -3 -15 -27 -16 -18 -1 -36 -1 -40 0 -5 1 -6 -3 -3
-8 3 -5 20 -11 38 -14 18 -3 53 -11 78 -17 25 -6 60 -14 78 -17 17 -3 32 -9
32 -14 0 -5 12 -9 28 -8 15 0 22 3 15 5 -7 3 -9 12 -6 20 4 11 -4 14 -33 14
-22 0 -46 5 -54 11 -12 8 -10 9 8 4 12 -3 22 -4 22 -1 0 3 -18 10 -41 16 -32
9 -44 8 -57 -2 -9 -8 -13 -8 -9 -1 4 6 1 14 -5 16 -10 4 -10 6 0 6 21 2 13 21
-9 21 -15 0 -19 -5 -15 -15z"/>
<path d="M2422 1194 c-1 -28 -4 -80 -7 -115 -4 -50 -3 -59 5 -40 6 14 9 65 7
115 -1 50 -4 68 -5 40z"/>
<path d="M1180 1200 c0 -12 17 -12 45 0 17 7 15 9 -12 9 -18 1 -33 -3 -33 -9z"/>
<path d="M1220 1180 c-23 -3 -31 -8 -22 -13 6 -5 16 -5 22 -2 5 3 21 -1 34
-10 14 -9 31 -13 37 -9 8 4 9 3 5 -4 -4 -7 -1 -12 6 -12 8 0 14 9 15 20 1 11
1 20 0 20 -1 0 -16 4 -32 8 -17 4 -46 5 -65 2z"/>
<path d="M1330 1126 c0 -2 9 -6 20 -9 11 -3 18 -1 14 4 -5 9 -34 13 -34 5z"/>
<path d="M1400 1120 c0 -5 14 -10 30 -10 17 0 30 5 30 10 0 6 -13 10 -30 10
-16 0 -30 -4 -30 -10z"/>
<path d="M1524 1052 c4 -7 13 -12 19 -12 7 0 25 -7 40 -15 15 -8 25 -10 22 -5
-4 6 10 9 32 9 30 -2 32 -3 11 -6 -16 -2 -28 -9 -28 -14 0 -5 3 -8 8 -7 16 4
72 -14 67 -22 -6 -10 26 -26 59 -29 8 0 22 -8 30 -17 15 -14 16 -13 16 12 0
33 -34 64 -72 64 -17 0 -28 5 -28 14 0 10 -19 15 -72 18 -40 3 -82 9 -92 13
-14 6 -17 5 -12 -3z"/>
<path d="M1618 1053 c12 -2 30 -2 40 0 9 3 -1 5 -23 4 -22 0 -30 -2 -17 -4z"/>
<path d="M1824 935 c-8 -20 4 -35 21 -28 9 3 15 -1 15 -10 0 -9 9 -19 20 -22
11 -3 26 -12 33 -18 34 -31 223 -157 236 -157 7 0 18 6 26 13 10 11 6 20 -26
50 -24 23 -47 37 -64 37 -15 0 -36 11 -48 24 -13 14 -29 24 -37 24 -36 -2 -64
3 -55 10 6 4 11 15 13 25 3 17 -1 18 -37 12 -36 -6 -41 -4 -41 13 0 25 -48 49
-56 27z m176 -115 c0 -5 -2 -10 -4 -10 -3 0 -8 5 -11 10 -3 6 -1 10 4 10 6 0
11 -4 11 -10z"/>
<path d="M2402 840 c0 -14 2 -19 5 -12 2 6 2 18 0 25 -3 6 -5 1 -5 -13z"/>
<path d="M2180 700 c0 -5 5 -10 11 -10 5 0 7 5 4 10 -3 6 -8 10 -11 10 -2 0
-4 -4 -4 -10z"/>
<path d="M2218 678 c4 -18 2 -20 -13 -14 -18 7 -18 6 0 -14 21 -24 29 -26 22
-5 -4 8 -2 17 3 20 15 9 12 35 -4 35 -10 0 -12 -7 -8 -22z"/>
<path d="M2327 628 c-7 -26 -1 -38 19 -38 9 0 14 11 14 30 0 35 -25 41 -33 8z"/>
<path d="M2256 608 c3 -4 10 -6 15 -3 5 4 9 2 9 -3 0 -13 50 -45 57 -38 9 8
-48 51 -69 52 -10 1 -15 -3 -12 -8z"/>
<path d="M170 1048 c0 -12 5 -30 10 -38 8 -12 10 -11 11 8 1 12 2 27 3 34 1 6
-5 13 -11 16 -8 2 -13 -5 -13 -20z"/>
<path d="M370 1040 c19 -6 21 -8 6 -9 -11 -1 -17 -4 -13 -7 10 -10 58 5 52 16
-3 6 -21 10 -38 9 -31 -1 -31 -1 -7 -9z"/>
<path d="M403 1003 c9 -2 23 -2 30 0 6 3 -1 5 -18 5 -16 0 -22 -2 -12 -5z"/>
<path d="M628 988 c5 -5 16 -8 23 -6 8 3 3 7 -10 11 -17 4 -21 3 -13 -5z"/>
<path d="M738 983 c7 -3 16 -2 19 1 4 3 -2 6 -13 5 -11 0 -14 -3 -6 -6z"/>
<path d="M191 964 c0 -11 3 -14 6 -6 3 7 2 16 -1 19 -3 4 -6 -2 -5 -13z"/>
<path d="M888 923 c6 -2 18 -2 25 0 6 3 1 5 -13 5 -14 0 -19 -2 -12 -5z"/>
<path d="M1015 916 c11 -8 27 -16 35 -16 20 0 1 16 -30 25 -24 7 -24 7 -5 -9z"/>
<path d="M222 880 c0 -19 2 -27 5 -17 2 9 2 25 0 35 -3 9 -5 1 -5 -18z"/>
<path d="M928 903 c7 -3 16 -2 19 1 4 3 -2 6 -13 5 -11 0 -14 -3 -6 -6z"/>
<path d="M1140 875 c14 -8 32 -14 40 -15 23 0 -2 17 -35 24 l-30 6 25 -15z"/>
<path d="M1200 860 c0 -6 7 -10 15 -10 8 0 15 2 15 4 0 2 -7 6 -15 10 -8 3
-15 1 -15 -4z"/>
<path d="M1270 835 c24 -14 23 -15 -20 -10 -25 2 -37 2 -27 -1 9 -3 17 -13 17
-22 0 -17 41 -42 67 -42 17 0 17 20 1 21 -7 0 0 6 16 14 28 12 29 13 9 23 -11
6 -23 9 -25 6 -3 -2 -11 2 -18 11 -7 8 -20 15 -29 15 -11 -1 -8 -5 9 -15z"/>
<path d="M231 793 c-1 -6 -4 -20 -7 -30 -5 -17 -5 -17 6 0 6 10 9 23 6 30 -3
9 -5 9 -5 0z"/>
<path d="M250 699 c0 -11 4 -18 10 -14 5 3 7 12 3 20 -7 21 -13 19 -13 -6z"/>
<path d="M1620 676 c0 -9 5 -16 10 -16 6 0 10 4 10 9 0 6 -4 13 -10 16 -5 3
-10 -1 -10 -9z"/>
<path d="M264 659 c-3 -6 -1 -16 5 -22 8 -8 11 -5 11 11 0 24 -5 28 -16 11z"/>
<path d="M300 587 c0 -38 18 -87 31 -87 8 0 2 26 -11 45 -3 6 -7 23 -8 39 -3
43 -12 45 -12 3z"/>
<path d="M356 447 c3 -10 9 -15 12 -12 3 3 0 11 -7 18 -10 9 -11 8 -5 -6z"/>
<path d="M2055 379 c-4 -6 -4 -13 0 -17 4 -4 10 -1 12 6 3 6 9 12 14 12 6 0 7
-5 3 -12 -4 -7 -3 -8 5 -4 6 4 9 12 6 17 -8 12 -32 11 -40 -2z"/>
<path d="M2120 346 c0 -3 9 -10 20 -16 11 -6 20 -8 20 -6 0 3 -9 10 -20 16
-11 6 -20 8 -20 6z"/>
<path d="M420 337 c0 -13 39 -85 50 -92 5 -3 10 3 10 14 0 19 -59 96 -60 78z"/>
<path d="M2285 190 c-3 -5 3 -10 15 -10 12 0 18 5 15 10 -3 6 -10 10 -15 10
-5 0 -12 -4 -15 -10z"/>
<path d="M516 165 c4 -8 8 -15 10 -15 2 0 4 7 4 15 0 8 -4 15 -10 15 -5 0 -7
-7 -4 -15z"/>
<path d="M544 136 c1 -8 5 -18 8 -22 4 -3 5 1 4 10 -1 8 -5 18 -8 22 -4 3 -5
-1 -4 -10z"/>
<path d="M592 60 c21 -38 38 -52 38 -30 0 6 -4 10 -8 10 -4 0 -13 14 -19 30
-6 17 -16 30 -22 30 -5 0 0 -18 11 -40z"/>
<path d="M630 54 c0 -17 18 -36 30 -32 7 2 4 10 -9 22 -12 11 -21 15 -21 10z"/>
<path d="M1183 43 c9 -2 23 -2 30 0 6 3 -1 5 -18 5 -16 0 -22 -2 -12 -5z"/>
</g>
</svg>
